<svg width="24" height="24" viewBox="0 0 24 24" fill="none" xmlns="http://www.w3.org/2000/svg">
<path d="M5.55384 22.1497C5.08134 22.1497 4.67934 21.984 4.34784 21.6525C4.01634 21.321 3.85059 20.919 3.85059 20.4465V15.6497C3.85059 15.1939 4.0195 14.7961 4.35734 14.4562C4.695 14.1164 5.09384 13.9465 5.55384 13.9465H18.4463C18.908 13.9465 19.3083 14.1164 19.6471 14.4562C19.9861 14.7961 20.1556 15.1939 20.1556 15.6497V20.4465C20.1556 20.919 19.9893 21.321 19.6566 21.6525C19.3239 21.984 18.9205 22.1497 18.4463 22.1497H5.55384ZM6.76209 18.06H17.2441C17.5858 18.06 17.8715 17.9454 18.1013 17.7162C18.3313 17.4871 18.4463 17.2021 18.4463 16.8615C18.4463 16.521 18.3313 16.2339 18.1013 16.0002C17.8715 15.7666 17.5858 15.6497 17.2441 15.6497H6.76209C6.41592 15.6497 6.128 15.7647 5.89834 15.9947C5.66867 16.2247 5.55384 16.5106 5.55384 16.8522C5.55384 17.1941 5.66867 17.4808 5.89834 17.7125C6.128 17.9441 6.41592 18.06 6.76209 18.06ZM11.3403 13.0665L7.32134 7.60198C7.17667 7.41131 7.07759 7.20656 7.02409 6.98773C6.97042 6.76906 6.96225 6.54531 6.99959 6.31648C7.19959 5.03398 7.7435 3.96806 8.63134 3.11873C9.51917 2.26939 10.6421 1.84473 12.0001 1.84473C13.3581 1.84473 14.481 2.26939 15.3688 3.11873C16.2567 3.96806 16.8006 5.03398 17.0006 6.31648C17.0379 6.54531 17.0298 6.76906 16.9761 6.98773C16.9226 7.20656 16.8235 7.41131 16.6788 7.60198L12.6658 13.0665C12.498 13.2951 12.2776 13.4095 12.0046 13.4095C11.7316 13.4095 11.5102 13.2951 11.3403 13.0665ZM12.0001 11.6437L15.3793 6.84473C15.3475 5.92839 15.0056 5.15081 14.3536 4.51198C13.7014 3.87331 12.9164 3.55398 11.9986 3.55398C11.0808 3.55398 10.2963 3.87331 9.64509 4.51198C8.99409 5.15081 8.65267 5.92839 8.62084 6.84473L12.0001 11.6437Z" fill="black"/>
</svg>
