<svg width="24" height="24" viewBox="0 0 24 24" fill="none" xmlns="http://www.w3.org/2000/svg">
<path d="M2.20922 13.0903C2.03922 12.9203 1.95739 12.7172 1.96372 12.4811C1.97005 12.2449 2.05822 12.0418 2.22822 11.8718C2.39822 11.7018 2.6013 11.6168 2.83747 11.6168C3.07364 11.6168 3.27672 11.7018 3.44672 11.8718L7.34997 15.8001L7.66372 16.1138L7.97772 16.4278C8.14372 16.5938 8.22764 16.7907 8.22947 17.0186C8.23147 17.2464 8.14955 17.4433 7.98372 17.6093L7.95872 17.6343C7.78472 17.8082 7.5828 17.8941 7.35297 17.8921C7.12314 17.8902 6.92322 17.8043 6.75322 17.6343L2.20922 13.0903ZM11.6 15.6506L20.5972 6.65933C20.7632 6.48933 20.9643 6.40333 21.2005 6.40133C21.4368 6.39933 21.6419 6.48333 21.8157 6.65333C21.9857 6.82333 22.0707 7.02741 22.0707 7.26558C22.0707 7.50374 21.9857 7.70783 21.8157 7.87783L12.2027 17.4908C12.0327 17.6608 11.8318 17.7458 11.6 17.7458C11.3681 17.7458 11.1672 17.6608 10.9972 17.4908L6.44722 12.9408C6.27739 12.7708 6.19664 12.5677 6.20497 12.3316C6.2133 12.0954 6.30439 11.8903 6.47822 11.7163C6.64822 11.5505 6.8513 11.4676 7.08747 11.4676C7.32364 11.4676 7.52472 11.5505 7.69072 11.7163L11.6 15.6506ZM17.4342 7.85983L12.1967 13.0973C12.0267 13.2673 11.8278 13.3482 11.6 13.3398C11.3721 13.3315 11.1732 13.2423 11.0032 13.0723C10.8332 12.9063 10.7482 12.7052 10.7482 12.4691C10.7482 12.2329 10.8332 12.0298 11.0032 11.8598L16.2157 6.64733C16.3857 6.47749 16.5888 6.39258 16.825 6.39258C17.0611 6.39258 17.2642 6.47749 17.4342 6.64733C17.6002 6.81733 17.6832 7.02041 17.6832 7.25658C17.6832 7.49274 17.6002 7.69383 17.4342 7.85983Z" fill="black"/>
</svg>
