<svg width="24" height="24" viewBox="0 0 24 24" fill="none" xmlns="http://www.w3.org/2000/svg">
<path d="M12 2.34473C13.3252 2.34473 14.5701 2.59931 15.7393 3.10645C16.9177 3.61762 17.9424 4.31054 18.8164 5.18457C19.6902 6.05846 20.3825 7.08253 20.8936 8.26074C21.4007 9.42988 21.6552 10.6748 21.6553 12C21.6553 13.3252 21.4007 14.5701 20.8936 15.7393C20.3824 16.9177 19.6904 17.9424 18.8164 18.8164C17.9425 19.6903 16.9183 20.3815 15.7402 20.8906C14.5711 21.3959 13.3263 21.6494 12.001 21.6494C10.6757 21.6494 9.43017 21.3962 8.26074 20.8916C7.23011 20.447 6.31688 19.8622 5.51855 19.1367L5.18359 18.8174C4.30842 17.9425 3.61665 16.918 3.1084 15.7402C2.60385 14.5712 2.35059 13.3263 2.35059 12.001C2.35059 10.6758 2.60404 9.43063 3.10938 8.26074C3.61853 7.0822 4.3107 6.05844 5.18457 5.18457C6.05857 4.31059 7.08232 3.61761 8.26074 3.10645C9.42992 2.5993 10.6748 2.34474 12 2.34473ZM12 3.05371C9.54505 3.05373 7.4303 3.93461 5.68262 5.68164C3.93499 7.42874 3.05376 9.54402 3.05371 12C3.05371 14.4589 3.93466 16.5754 5.68262 18.3213C7.43011 20.0667 9.54394 20.9463 11.9971 20.9463C14.4501 20.9463 16.5648 20.0667 18.3145 18.3213C20.0644 16.5756 20.9463 14.4602 20.9463 12.0029C20.9462 9.54596 20.0645 7.43032 18.3154 5.68262C16.5665 3.93531 14.4525 3.05371 12 3.05371ZM12.0762 7.19922C12.1899 7.19922 12.2533 7.23176 12.3057 7.28418V7.2832C12.3582 7.33584 12.3906 7.40033 12.3906 7.51465V11.8672L12.5361 12.0137L15.877 15.3828L15.8789 15.3848C15.9499 15.4558 15.9814 15.5296 15.9814 15.6348C15.9814 15.7396 15.95 15.8085 15.8828 15.874V15.875C15.8098 15.9462 15.7265 15.9841 15.6055 15.9883C15.5123 15.9915 15.4472 15.9658 15.377 15.8906L15.3711 15.8848L11.8643 12.2539C11.8442 12.2283 11.8276 12.2046 11.8145 12.1826L11.7803 12.1152L11.7656 12.0605C11.7619 12.0397 11.7598 12.0159 11.7598 11.9883V7.51465C11.7598 7.40131 11.7909 7.33696 11.8438 7.28418L11.8447 7.28516C11.8983 7.23183 11.9625 7.19925 12.0762 7.19922Z" fill="black" stroke="black"/>
</svg>
