<svg width="24" height="24" viewBox="0 0 24 24" fill="none" xmlns="http://www.w3.org/2000/svg">
<path d="M2.81258 18.0656C2.29542 18.0656 1.853 17.8811 1.48533 17.5121C1.11783 17.1429 0.934082 16.6988 0.934082 16.1798C0.934082 15.6607 1.11833 15.216 1.48683 14.8458C1.85517 14.4757 2.29567 14.2906 2.80833 14.2906C2.9045 14.2906 2.99725 14.2967 3.08658 14.3091C3.17592 14.3214 3.29517 14.3442 3.44433 14.3776L8.19333 9.62483C8.16 9.47817 8.13817 9.36017 8.12783 9.27083C8.1175 9.1815 8.11233 9.08958 8.11233 8.99508C8.11233 8.47508 8.29817 8.03125 8.66983 7.66358C9.0415 7.29608 9.48683 7.11233 10.0058 7.11233C10.525 7.11233 10.9683 7.29775 11.3358 7.66858C11.7035 8.03942 11.8873 8.48517 11.8873 9.00583C11.8873 9.059 11.8603 9.26058 11.8063 9.61058L14.3863 12.1933C14.5293 12.16 14.6455 12.1382 14.7348 12.1278C14.8242 12.1175 14.9125 12.1123 14.9998 12.1123C15.0872 12.1123 15.1765 12.1175 15.2678 12.1278C15.3592 12.1382 15.4763 12.16 15.6193 12.1933L19.3776 8.44108C19.3442 8.29808 19.3224 8.18092 19.3121 8.08958C19.3017 7.99825 19.2966 7.90542 19.2966 7.81108C19.2966 7.29258 19.4818 6.85017 19.8523 6.48383C20.2228 6.11733 20.6682 5.93408 21.1883 5.93408C21.7087 5.93408 22.1517 6.118 22.5173 6.48583C22.8828 6.85383 23.0656 7.29791 23.0656 7.81808C23.0656 8.33842 22.8821 8.78267 22.5151 9.15083C22.1479 9.519 21.7067 9.70308 21.1913 9.70308C21.0952 9.70308 21.0014 9.69792 20.9101 9.68758C20.8187 9.67725 20.7016 9.65542 20.5586 9.62208L16.8063 13.3803C16.8397 13.5233 16.8615 13.6405 16.8718 13.7318C16.8822 13.8232 16.8873 13.9155 16.8873 14.0088C16.8873 14.5222 16.7025 14.9636 16.3328 15.3331C15.9632 15.7026 15.5187 15.8873 14.9996 15.8873C14.4806 15.8873 14.0362 15.7026 13.6666 15.3331C13.2971 14.9636 13.1123 14.5217 13.1123 14.0073C13.1123 13.911 13.1175 13.8182 13.1278 13.7288C13.1382 13.6395 13.16 13.5212 13.1933 13.3741L10.6256 10.8063C10.4784 10.8397 10.3602 10.8615 10.2708 10.8718C10.1815 10.8822 10.0891 10.8873 9.99358 10.8873C9.94058 10.8873 9.73908 10.8603 9.38908 10.8063L4.62208 15.5711C4.65542 15.7137 4.67825 15.8287 4.69058 15.9161C4.70292 16.0034 4.70908 16.0952 4.70908 16.1913C4.70908 16.704 4.52333 17.1445 4.15183 17.5128C3.7805 17.8813 3.33408 18.0656 2.81258 18.0656Z" fill="black"/>
</svg>
