<svg width="24" height="24" viewBox="0 0 24 24" fill="none" xmlns="http://www.w3.org/2000/svg">
<path d="M3.55384 21.1494C3.09384 21.1494 2.695 20.9805 2.35734 20.6426C2.0195 20.305 1.85059 19.9061 1.85059 19.4461V7.62539C1.85059 7.16372 2.0195 6.76347 2.35734 6.42464C2.695 6.08564 3.09384 5.91614 3.55384 5.91614H7.86259V3.41614C7.86259 2.96031 8.0315 2.56247 8.36934 2.22264C8.707 1.88281 9.10584 1.71289 9.56584 1.71289H14.4343C14.8943 1.71289 15.2932 1.88281 15.6308 2.22264C15.9687 2.56247 16.1376 2.96031 16.1376 3.41614V5.91614H20.4463C20.908 5.91614 21.3083 6.08564 21.6471 6.42464C21.9861 6.76347 22.1556 7.16372 22.1556 7.62539V19.4461C22.1556 19.9061 21.9861 20.305 21.6471 20.6426C21.3083 20.9805 20.908 21.1494 20.4463 21.1494H3.55384ZM3.55384 19.4461H20.4463V7.62539H3.55384V19.4461ZM9.56584 5.91614H14.4343V3.41614H9.56584V5.91614Z" fill="black"/>
</svg>
