<svg width="142" height="142" viewBox="0 0 142 142" fill="none" xmlns="http://www.w3.org/2000/svg">
<path d="M71.917 0.00585938C110.706 0.496928 142 32.0941 142 71L141.994 71.917C141.503 110.706 109.906 142 71 142L70.082 141.994C31.5982 141.507 0.493061 110.401 0.00585938 71.917L0 71C0 31.7879 31.7879 0 71 0L71.917 0.00585938ZM71 7.0293C35.6703 7.0293 7.0293 35.6703 7.0293 71C7.0294 106.33 35.6703 134.97 71 134.97C106.33 134.97 134.97 106.33 134.97 71C134.97 35.6703 106.33 7.0294 71 7.0293ZM43.126 79.8633C44.8778 94.0357 48.452 106.777 53.1621 116.393C54.9469 120.036 56.9511 123.346 59.166 126.145C37.5373 121.505 20.1595 104.359 15.7217 82.0889L43.126 79.8633ZM80.7158 76.8105C85.3254 76.4362 89.343 79.9882 89.2236 84.6113C88.9726 94.3108 87.6696 102.953 85.6045 109.788C84.0568 114.91 82.1633 118.739 80.1963 121.234C78.2357 123.721 76.5682 124.459 75.3662 124.557C74.1642 124.654 72.3986 124.195 70.0625 122.058C67.7188 119.913 65.2317 116.44 62.8779 111.635C59.138 104 56.0512 93.6612 54.3037 81.791C54.0797 80.2663 55.2042 78.8828 56.7402 78.7578L80.7158 76.8105ZM127.375 73.0215C126.589 95.7164 112.206 115.442 91.6094 123.511C93.3439 120.392 94.7873 116.801 95.9609 112.917C98.4859 104.56 99.9295 94.2742 100.074 83.0264C100.13 78.6781 103.391 74.9695 107.726 74.6172L127.375 73.0215ZM66.667 17.4414C67.8689 17.3441 69.6343 17.8037 71.9697 19.9404C74.3136 22.0852 76.8004 25.56 79.1543 30.3652C82.5598 37.3175 85.4232 46.511 87.2275 57.0615C87.9984 61.5692 84.6205 65.6385 80.0625 66.0088L55.7324 67.9854H55.7295L38.6094 69.376L38.6084 69.375L14.624 71.3232C14.4635 47.6506 29.1194 26.835 50.4219 18.4893C48.6877 21.6081 47.2447 25.1975 46.0713 29.0811C43.6134 37.2161 42.1796 47.1792 41.9717 58.0781L52.8135 57.1973C53.0767 47.5754 54.3752 39.0013 56.4268 32.2109C57.9744 27.0887 59.8679 23.2586 61.835 20.7637C63.7955 18.2773 65.465 17.5392 66.667 17.4414ZM82.8662 15.8535C105.237 20.6519 123.059 38.8308 126.721 62.2197L106.471 63.8643C102.326 64.2007 98.5931 61.3549 97.7422 57.2842C95.8211 48.0931 92.2581 32.5238 88.8691 25.6055C87.0843 21.962 85.081 18.6517 82.8662 15.8535Z" fill="#196BA6"/>
</svg>
